/* XPM */
static char *_40d1b795acf45acf06fc6cdcd3b95c5MvGBHzhrd5c0Mclp[] = {
/* columns rows colors chars-per-pixel */
"32 32 12 1 ",
"  c black",
". c #25150D",
"X c #ED1C24",
"o c #955638",
"O c #9B5038",
"+ c #9B5738",
"@ c #9B5739",
"# c #9C5839",
"$ c #9C593B",
"% c #9C5A3B",
"& c #9C5A3C",
"* c #E5AA7A",
/* pixels */
"&**XXX**&&&**XXX****&&&**XXX**&&",
"**XXX**&&&**XX       &**XXX**&&&",
"*XXX**&&&**    && &&    XX**&&&*",
"XXX**&&&*.  &&&&& &&&&&  **&&&**",
"XX**&& . &&&&&&&& &&&&&&  &&&**X",
"X**&& .@&&&&&&&&& &&&&&&&& &**XX",
"**&& %@@&&&&&&&&& &&&&&&&&& *XXX",
"*&& &%%%&@&@%%&&& &&&&&&&&&& XX*",
"&&& &&$$&$$$$@%&& &&&&&&&&&& X**",
"&&* &&&$&$$$@%&&& &&&&&&&&&& **&",
"&** &&$@$$&$@&&&& &&&&&&&&&& *&&",
"**X &$%$$$&%%&&&& &&&&&&&&&& &&&",
"*XX &%$$&$&%$$%&& &&&&&&&&&& &&*",
"XXX &%$&$$&%$$%%& &&&&&&&&&& &**",
"XX* &$$%$$$%$%%%& &&&&&&&&&& **X",
"X** &%@$&$$%$$%%& &&&&&&&&&& *XX",
"*** $$$&%@&%@%& & && &&&&&&& XXX",
"*** $$$%&$$%@%&&& &&&&&&&&&& XX*",
"**& %%$$$$@@%%&&& &&&&&&&&&& X**",
"*&& &&&&@$%%@@&&& &&&&&&&&&& ***",
"&&& &&&&$$+$%@%&& &&&&&&&&&& ***",
"&&* &&&%$$$$@%%&& &&&&&&&&&& **&",
"&** &&&&%%$$&%&&& &&&&&&&&&& *&&",
"**X &&&&&%%%&&&&& &&&&&&&&&& &&&",
"*XX &&&&$%&&&&&&& &&&&&&&&&& &&*",
"XXX &&&&O$&&&&&&& &&&&&&&&&& &**",
"XX* &&&&%@&&&&&&& &&&&&&&&&&  *X",
"X** &&&&o%%&&&&&& &&&&&&&&&&  XX",
"**& &&&&&&&&@&&&& &&&&&&&&&&  XX",
"*&& &&&&&&&&&&&&    &&&&&    XX*",
"&&&             X            X**",
"&&**XXX**&&&**XXX****&&&**XXX**&"
};
