/* XPM */
static char *_6a0d79d2add4df2ae128fe110aad218g6TXxvfqx2irtSol[] = {
/* columns rows colors chars-per-pixel */
"32 32 3 1 ",
"  c #ED1C24",
". c #9C5A3C",
"X c #E5AA7A",
/* pixels */
".XX   XX...XX   XXXX...XX   XX..",
"XX   XX...XX   XXXX...XX   XX...",
"X   XX...XX   XXXX...XX   XX...X",
"   XX...XX   XXXX...XX   XX...XX",
"  XX...XX   XXXX...XX   XX...XX ",
" XX...XX   XXXX...XX   XX...XX  ",
"XX...XX   XXXX...XX   XX...XX   ",
"X...XX   XXXX...XX   XX...XX   X",
"...XX   XXXX...XX   XX...XX   XX",
"..XX   XXXX...XX   XX...XX   XX.",
".XX   XXXX...XX   XX...XX   XX..",
"XX   XXXX...XX   XX...XX   XX...",
"X   XXXX...XX   XX...XX   XX...X",
"   XXXX...XX   XX...XX   XX...XX",
"  XXXX...XX   XX...XX   XX...XX ",
" XXXX...XX   XX...XX   XX...XX  ",
"XXXX...XX   XX...XX   XX...XX   ",
"XXX...XX   XX...XX   XX...XX   X",
"XX...XX   XX...XX   XX...XX   XX",
"X...XX   XX...XX   XX...XX   XXX",
"...XX   XX...XX   XX...XX   XXXX",
"..XX   XX...XX   XX...XX   XXXX.",
".XX   XX...XX   XX...XX   XXXX..",
"XX   XX...XX   XX...XX   XXXX...",
"X   XX...XX   XX...XX   XXXX...X",
"   XX...XX   XX...XX   XXXX...XX",
"  XX...XX   XX...XX   XXXX...XX ",
" XX...XX   XX...XX   XXXX...XX  ",
"XX...XX   XX...XX   XXXX...XX   ",
"X...XX   XX...XX   XXXX...XX   X",
"...XX   XX...XX   XXXX...XX   XX",
"..XX   XX...XX   XXXX...XX   XX."
};
