/* XPM */
static char *_28fc66757d74f12fa7f1f416f80014dSE0BVnDRu9RIfBqM[] = {
/* columns rows colors chars-per-pixel */
"32 32 8 1 ",
"  c None",
". c black",
"X c #ED161F",
"o c #9D5A39",
"O c #6F2D99",
"+ c #D4F9BD",
"@ c #99D9EA",
"# c #9ADAEB",
/* pixels */
"                                ",
"                                ",
"                                ",
"                                ",
"        ..            .....     ",
"          ...       .           ",
"             .     .            ",
"              ....O             ",
"             OOooOOOO           ",
"            OOOOOOOO#O          ",
"           O#OOOOOOOOO          ",
"           OOOOOoOOOO           ",
"           .OOOoooOOo           ",
"            oooooooo.           ",
"            oooooooo            ",
"              .ooo.             ",
"             .XXXX.             ",
"            XXXXXXX.            ",
"           .XXX..X...           ",
"         ..+++.oo++++.          ",
"        .++++++ooo++++.         ",
"        .+++++.ooo.++++.        ",
"       .++++++.ooo..+++.        ",
"      .+++++...ooo..+..         ",
"      ......  .o.o. .           ",
"         .     . .              ",
"                                ",
"                                ",
"                                ",
"                                ",
"                                ",
"                                "
};
