/* XPM */
static char *_e24b628b0f049b384763619db6103ccRYlEhiLOgkV0tOAU[] = {
/* columns rows colors chars-per-pixel */
"100 100 9 1 ",
"  c None",
". c black",
"X c #ED1C24",
"o c #9C5A3C",
"O c #6F3198",
"+ c #4D6DF3",
"@ c #00B7EF",
"# c #D3F9BC",
"$ c #99D9EA",
/* pixels */
"                                                                                                    ",
"                                                                                                    ",
"                                                                                                    ",
"                                                                                                    ",
"                                                                                                    ",
"                                                                                                    ",
"                                                                                                    ",
"                                                                                                    ",
"                                                                                                    ",
"                                                                                                    ",
"                                                                                                    ",
"                                                                                                    ",
"                                                                                                    ",
"                                                                                                    ",
"                                                                                                    ",
"                                                                                                    ",
"                                                                                                    ",
"                                                                                                    ",
"                                                                                                    ",
"                                                                                                    ",
"                                                                                                    ",
"                                                                                                    ",
"                                                                                                    ",
"                                                               ..........                           ",
"                                                             ..                                     ",
"                                                           ..                                       ",
"                         ...........                      .                                         ",
"                                    ...                  .                                          ",
"                                       ..              ..                                           ",
"                                         .            .                                             ",
"                                          .   ....... OO                                            ",
"                                          .OOOooooooOOOOOOO                                         ",
"                                          OOOOOOoooOOOOOOOOO                                        ",
"                                        OOOOOOOOOoOOOOOO$OOOO                                       ",
"                                       OOOOO+OOOOOOOOOOOOOOO$O                                      ",
"                                       OOOOOOOOOOOO$OOO$@OOOOO                                      ",
"                                      OOO+OOOO$OOOOOO$OOO$OOO                                       ",
"                                      OOO$OOOO@OOOOOOOOOOOOO$O                                      ",
"                                      .OOOOOOOOOO@OOOO@ O$OOO                                       ",
"                                      OOOOOOOO@OOOoOOOOOOOOOO                                       ",
"                                      .OO+OOOOOOOOooOOOOO$OO.                                       ",
"                                      .OOOOOO$OOOoooOOOOO@Oo.                                       ",
"                                      .oOOOOOOOOooooooOOOOoo.                                       ",
"                                       .ooOOOOooooooooooooo.                                        ",
"                                       .ooooooooooooooooooo.                                        ",
"                                       .ooooooooooooooooooo.                                        ",
"                                        .ooooooooooooooooo.                                         ",
"                                         .ooooooooooooooo.                                          ",
"                                          ..ooooooooooo..                                           ",
"                                            ..ooooooo..                                             ",
"                                             ........                                               ",
"                                           ..XXXXXXXX..                                             ",
"                                         ..XXXXXXXXXXXX.                                            ",
"                                        .XXXXXXXXXXXXXXX.                                           ",
"                                      ..XXXXXXXXXXXXXXXXX..                                         ",
"                                     .XXXXXXXXXXX.XXXXXXXX..                                        ",
"                                     ...XXXXXXXX.o..XX....#.                                        ",
"                                     .##.....XXX.oo...######.                                       ",
"                                    .########...ooo.#########.                                      ",
"                                   .###########.oooo.########.                                      ",
"                                  .###########..ooooo.########.                                     ",
"                                 .############.oooooo.#########.                                    ",
"                                 .###########.ooooooo..#########.                                   ",
"                                .############.ooooooo. .#########.                                  ",
"                               .#############.ooooooo.  .########.                                  ",
"                              .#############..ooooooo.  .#########.                                 ",
"                             .##############..ooooooo.   .#######...                                ",
"                            .##############. .ooo.ooo.    .####..                                   ",
"                            .##########..... .ooo.ooo.    .##..                                     ",
"                           .###........      .ooo.ooo.     ..                                       ",
"                          .....              .ooo..oo.                                              ",
"                                             .oo. .oo.                                              ",
"                                              ...  ...                                              ",
"                                                .    .                                              ",
"                                                                                                    ",
"                                                                                                    ",
"                                                                                                    ",
"                                                                                                    ",
"                                                                                                    ",
"                                                                                                    ",
"                                                                                                    ",
"                                                                                                    ",
"                                                                                                    ",
"                                                                                                    ",
"                                                                                                    ",
"                                                                                                    ",
"                                                                                                    ",
"                                                                                                    ",
"                                                                                                    ",
"                                                                                                    ",
"                                                                                                    ",
"                                                                                                    ",
"                                                                                                    ",
"                                                                                                    ",
"                                                                                                    ",
"                                                                                                    ",
"                                                                                                    ",
"                                                                                                    ",
"                                                                                                    ",
"                                                                                                    "
};
