/* XPM */
static char *_e8257fccaa74bf5faa94147a2b1d4115kwZmBUCAuFPCQzD[] = {
/* columns rows colors chars-per-pixel */
"32 32 8 1 ",
"  c black",
". c #464646",
"X c #990030",
"o c #ED1C24",
"O c #9C5A3C",
"+ c #22B14C",
"@ c #E5AA7A",
"# c #B4B4B4",
/* pixels */
"O@@ooo@@OOO@@ooo@##@OOO####o@@OO",
"@@ooo@@OOO@@ooo@@#@OOO@@###@@OOO",
"@ooo@@OOO@@ooo@@@@#OO@@oo##@OOO@",
"ooo@@OOO@@ooo@@@@O#O@@ooo#@OO..@",
"oo@@OOO@@ooo@@@@OO##@ooo#@OO...o",
"o@@OOO@@ooo++..OOO#@ooo##OO++..o",
"@@OOO@@o..+++..OO@#ooo@#O.+++ooo",
"@OOO@@oo..+++OOO@@ooo@@OO..+++o@",
"OOO@@ooo@@+++OO@@ooo@@OOO..o++@@",
"OO@@ooo@@@@OOO@@ooo@   O@@ooo@@O",
"O@@ooo@@@@OOO@@ooo@  X @@ooo@@OO",
"@@ooo@@@@OOO@@ooo@  X  @ooo@@OOO",
"@ooo@@@@OOO@@ooo@  XX @ooo@@OOO@",
"ooo@@@@OOO@@ooo@@ XXX ooo@@OOO@@",
"oo@@@@OOO@@ooo@@  XXX oo@@OOO@@o",
"o@@@@OOO@@ooo@@  XXXX o@@OOO@@oo",
"@@@@OOO@@ooo           @OOO@@ooo",
"@@@OOO@@ooo  XXXXXXXXX  OO@@ooo@",
"@@OOO@@ooo XXXXXXXXXXXX  @@ooo@@",
"@OOO@@ooo XXXXXXXXXXXXXX @ooo@@@",
"OOO@@ooo@ XXXXXXXXXXXXXX ooo@@@@",
"OO@@ooo@@ XXXXXXXXXXXXXXX o@@@@O",
"O@@ooo@@O         XXXXXXX @@@@OO",
"@@ooo@@O  XXXXXXX       X @@@OOO",
"@ooo@@   XXXXXXXXXXXXXX    @OOO@",
"ooo@@O  XXXXXXXXXXXXXXXXX   OO@@",
"oo@@OOO XXXXXXXXXXXXXXXXXXX  @@o",
"o@@OOO@  XXXXXXXXXXXXXXXXXXXX oo",
"@@OOO@@oo   XXXXXXXXXXXXXXXX  oo",
"@OOO@@ooo@@O     XXXXXXXX   ooo@",
"OOO@@ooo@@OOO@@oo         @ooo@@",
"OO@@ooo@@OOO@@ooo@@@@OOO@@ooo@@O"
};
