/* XPM */
static char *_243ab98a84243d5e258c2cfec011112stitjnpuOhZK0BAc[] = {
/* columns rows colors chars-per-pixel */
"32 32 19 1 ",
"  c black",
". c #04170A",
"X c #072B13",
"o c #167231",
"O c #3C6048",
"+ c #464646",
"@ c #415447",
"# c #2F8B4A",
"$ c #27A34A",
"% c #24AB4B",
"& c #22B14C",
"* c #27B14F",
"= c #30B057",
"- c #34B158",
"; c #56B171",
": c #80B392",
"> c #8FB39B",
", c #A1B4A7",
"< c #B4B4B4",
/* pixels */
"&<<<<<&<<<&&+#+@&&+O <&&<<&&<<&<",
"<<<<<<<<<< +++++%+++ <;<<<;<<<<;",
"<<<<<<<<<< +++++++++ <<<<<<<<<<<",
"<<<<<<<<<< +++++++++ <<<<<<<<<<<",
"<<<<<<<<<< +++++++++ <<<<<<<<<<<",
"<<<<<<<<<< +++++++++ <<<<<<<<<<<",
"<<<<<<<<<< +++++++++            ",
"                     +++++++++++",
"<<<<<<<<<<<<<<< ++++++++++++++++",
"<<<<<<<<<<<<<<< ++++++++++++++++",
"<<<<<<<<<<<<<<< ++++++++++++++++",
"<<<<<<<<<<<<<<< ++++++++++++++++",
"<<<<<<<<<<<<<<< ++++++++++++++++",
"<<<<<<<<<<<<<<< ++++++++++++++++",
"<<<<<<<<<<<<<<< ++++++++++++++++",
"<<<-<<<<><<<,<< ++++++++++++O+@+",
"   &&o.  .;>    oX o o  #&      ",
"@++% &;;&&&&&&&&<&&&&&&<,&<<&&<&",
"++++.&<&&<&<=;<<-<,;<;<<<,;<*<<<",
"++++ &<;<<<<<<<<<<<<<<<<<<<<<<<<",
"++++&<<<<<<<<<<<<<<<<<<<<<<<<<<<",
"++++ ,<<<<<<<<<<<<<<<<<<<<<<<<<<",
"++++@<<<<<<<<<<<<<<<<<<<<<<<<<<<",
"++++@<,<<<<<<<<<<<<<<<<<<<<<<<<<",
"++++ &,<<<<<<<<<<<<<<<<<<<<<<<<<",
"++++ &<<<<<<<<<<<<<<<<<<<<<<<<<<",
"++++  <<<<<<<<<<<<<<<<<<<<<<<<<<",
"++++& <<<<<<<<<<<<<<<<<<<<<<<<<<",
"++++#&<<<<<<<<<<<<<<<<<<<<<<<<<<",
"O+@+# ,<<<<<<<<<<<,<<<<,<<:;,<<<",
"+@#@ &&<<<<<<<<<<<<<<;<<<,<&&&<;",
"&$&$ &<<;<&&&<<<<<&;<&&<&<&&<>&&"
};
